<svg xmlns="http://www.w3.org/2000/svg" xmlns:xlink="http://www.w3.org/1999/xlink" width="500" zoomAndPan="magnify" viewBox="0 0 375 374.999991" height="500" preserveAspectRatio="xMidYMid meet" version="1.0"><defs><clipPath id="817b632516"><path d="M 17.25 0 L 357.75 0 C 362.324219 0 366.710938 1.816406 369.949219 5.050781 C 373.183594 8.289062 375 12.675781 375 17.25 L 375 357.75 C 375 362.324219 373.183594 366.710938 369.949219 369.949219 C 366.710938 373.183594 362.324219 375 357.75 375 L 17.25 375 C 12.675781 375 8.289062 373.183594 5.050781 369.949219 C 1.816406 366.710938 0 362.324219 0 357.75 L 0 17.25 C 0 12.675781 1.816406 8.289062 5.050781 5.050781 C 8.289062 1.816406 12.675781 0 17.25 0 Z M 17.25 0 " clip-rule="nonzero"/></clipPath><clipPath id="9bf7f8ed6e"><path d="M 16.125 88 L 357 88 L 357 287 L 16.125 287 Z M 16.125 88 " clip-rule="nonzero"/></clipPath><clipPath id="210096e330"><path d="M 168.324219 188 L 206 188 L 206 240 L 168.324219 240 Z M 168.324219 188 " clip-rule="nonzero"/></clipPath><clipPath id="e1cee31945"><path d="M 181 244 L 193 244 L 193 255.035156 L 181 255.035156 Z M 181 244 " clip-rule="nonzero"/></clipPath></defs><g clip-path="url(#817b632516)"><rect x="-37.5" width="450" fill="#ffffff" y="-37.499999" height="449.999989" fill-opacity="1"/></g><g clip-path="url(#9bf7f8ed6e)"><path fill="#000000" d="M 351.3125 113.34375 C 344.78125 108.445312 332.671875 111.4375 332.058594 120.621094 C 332.058594 120.960938 332.125 121.234375 332.261719 121.507812 C 331.785156 125.316406 332.808594 129.328125 335.257812 132.324219 C 326.957031 134.296875 319.472656 140.28125 312.195312 144.296875 C 303.417969 149.125 295.933594 155.519531 288.316406 161.984375 C 281.445312 167.902344 274.367188 173.550781 268.042969 180.082031 C 265.660156 182.53125 262.941406 185.386719 260.625 188.515625 C 260.558594 187.699219 260.421875 186.882812 260.355469 186.136719 C 259.742188 179.945312 259.128906 173.753906 258.652344 167.5625 C 257.835938 156.542969 257.429688 144.976562 255.253906 134.089844 C 258.3125 133.410156 261.101562 131.777344 262.804688 129.328125 C 265.933594 124.769531 265.320312 118.035156 262.328125 113.613281 C 259.128906 108.851562 253.074219 107.21875 248.382812 109.871094 C 245.726562 110.6875 243.347656 112.457031 241.714844 115.316406 C 238.71875 120.484375 239.671875 127.695312 244.230469 131.710938 C 245.523438 132.867188 247.089844 133.617188 248.722656 134.089844 C 240.898438 143.070312 234.84375 153.070312 229.195312 163.683594 C 225.792969 170.011719 222.664062 176.472656 219.605469 182.9375 C 218.855469 184.433594 217.972656 186.066406 217.085938 187.699219 C 213.210938 174.570312 208.789062 161.710938 204.570312 148.648438 C 202.324219 141.710938 200.417969 134.773438 198.652344 127.695312 C 197.496094 123.003906 195.929688 118.035156 192.597656 114.5 C 192.597656 114.429688 192.664062 114.292969 192.664062 114.226562 C 192.664062 114.160156 192.664062 114.089844 192.664062 114.089844 C 195.863281 114.292969 199.195312 113.34375 201.710938 110.894531 C 208.445312 104.429688 205.523438 92.730469 196.882812 89.734375 C 189.808594 87.285156 180.351562 90.757812 179.328125 98.917969 C 178.648438 104.769531 183.410156 113.886719 189.464844 114.089844 C 184.363281 119.464844 181.167969 127.015625 178.242188 133.617188 C 174.90625 141.03125 171.371094 148.175781 167.832031 155.453125 C 164.5 162.390625 162.050781 169.671875 158.171875 176.339844 C 156.878906 178.582031 155.382812 180.964844 154.226562 183.414062 C 152.59375 180.285156 151.371094 176.882812 149.941406 173.753906 C 147.421875 168.105469 144.363281 162.800781 141.4375 157.289062 C 136.402344 147.765625 131.503906 135.996094 123.410156 128.242188 C 125.722656 126.8125 127.695312 124.636719 128.917969 121.914062 C 131.914062 115.179688 129.871094 107.082031 123.136719 103.683594 C 120.144531 102.117188 116.605469 101.914062 113.339844 102.730469 C 112.457031 102.527344 111.570312 102.457031 110.621094 102.660156 C 107.082031 103.34375 104.699219 106.199219 103.066406 109.328125 C 99.394531 116.609375 101.367188 125.316406 109.054688 128.988281 C 111.164062 130.007812 113.476562 130.484375 115.652344 130.484375 C 110.753906 141.304688 106.671875 152.527344 104.292969 164.160156 C 102.933594 170.894531 101.164062 177.496094 99.667969 184.160156 C 99.054688 187.085938 98.101562 190.488281 97.558594 193.890625 C 90.480469 186.066406 84.699219 177.085938 76.945312 169.875 C 67.214844 160.828125 55.515625 153.34375 42.25 151.234375 C 42.113281 151.167969 41.910156 151.03125 41.773438 150.964844 C 42.929688 149.261719 43.8125 147.289062 44.289062 145.316406 C 46.261719 136.675781 39.664062 126.878906 30.34375 127.492188 C 29.117188 127.5625 27.960938 127.832031 26.804688 128.308594 C 22.792969 129.398438 19.796875 132.050781 18.4375 135.792969 C 16.464844 139.464844 16.125 143.683594 18.710938 146.949219 C 20.207031 151.167969 23.132812 154.839844 27.351562 156.40625 C 31.703125 158.039062 35.855469 156.8125 38.984375 154.160156 C 41.296875 157.222656 44.628906 159.941406 46.875 162.9375 C 49.9375 167.15625 52.589844 171.710938 54.902344 176.40625 C 59.800781 186.339844 63.40625 196.953125 67.078125 207.429688 C 71.160156 218.992188 75.515625 230.421875 78.507812 242.328125 C 80.210938 249.0625 81.707031 255.796875 83.066406 262.601562 C 84.292969 268.65625 84.359375 276.617188 88.644531 281.378906 C 89.9375 282.804688 91.773438 282.535156 93 281.515625 C 100.007812 282.332031 107.21875 279.882812 113.953125 278.113281 C 121.164062 276.207031 128.441406 274.300781 135.789062 272.667969 C 151.097656 269.269531 166.609375 267.429688 182.253906 267.226562 C 197.496094 267.023438 212.800781 268.382812 227.5625 272.261719 C 234.640625 274.097656 241.238281 276.75 247.972656 279.609375 C 252.667969 281.582031 258.246094 284.644531 263.621094 285.390625 C 265.796875 287.703125 270.695312 286.617188 271.171875 282.464844 C 272.871094 267.160156 275.050781 252.804688 279.742188 238.109375 C 284.503906 223.28125 290.765625 208.925781 297.839844 195.046875 C 304.234375 182.460938 311.378906 170.148438 319.132812 158.378906 C 324.234375 150.691406 330.359375 139.601562 338.996094 135.519531 L 339.066406 135.519531 C 344.507812 138.039062 352.058594 135.722656 355.257812 130.621094 C 358.863281 124.703125 356.480469 117.21875 351.3125 113.34375 Z M 247.292969 120.214844 C 247.429688 118.375 247.972656 116.878906 248.789062 115.722656 C 250.625 114.429688 252.597656 112.867188 254.910156 113.683594 C 256.816406 114.363281 258.175781 116.269531 258.925781 118.035156 C 260.761719 122.527344 258.652344 126.675781 253.621094 127.085938 C 249.128906 127.425781 246.953125 124.566406 247.292969 120.214844 Z M 197.628906 98.035156 C 201.101562 103.546875 194.773438 110.484375 189.058594 107.082031 C 187.5625 106.199219 186.542969 104.972656 185.929688 103.683594 C 185.65625 102.796875 185.453125 101.980469 185.382812 101.164062 C 185.382812 99.328125 186.132812 97.558594 187.5625 96.265625 C 190.625 94.226562 195.726562 95.042969 197.628906 98.035156 Z M 107.964844 117.289062 C 107.898438 116.949219 107.828125 116.675781 107.828125 116.335938 C 109.121094 113.886719 110.007812 111.234375 112.25 109.398438 C 114.90625 107.289062 118.78125 107.015625 121.707031 108.714844 C 127.082031 111.914062 125.175781 119.941406 120.074219 122.1875 C 115.515625 124.226562 109.121094 122.664062 107.964844 117.289062 Z M 31.433594 149.398438 C 27.757812 149.804688 25.171875 145.042969 24.425781 142.121094 C 24.152344 141.097656 24.085938 140.011719 24.085938 139.058594 C 24.425781 138.039062 25.105469 137.015625 26.125 136.066406 C 28.777344 133.546875 32.722656 132.933594 35.71875 135.453125 C 38.304688 137.628906 39.390625 142.390625 37.28125 145.316406 C 36.125 146.746094 33.472656 149.195312 31.433594 149.398438 Z M 290.96875 189.945312 C 276 216.203125 264.097656 245.660156 262.597656 276.070312 C 261.441406 275.730469 260.355469 275.390625 259.265625 274.984375 C 255.523438 273.554688 251.917969 271.921875 248.246094 270.355469 C 241.917969 267.636719 235.589844 265.253906 228.925781 263.484375 C 213.683594 259.472656 197.902344 257.976562 182.1875 258.179688 C 166.609375 258.382812 151.371094 260.355469 136.199219 264.03125 C 128.648438 265.867188 121.097656 267.976562 113.613281 270.152344 C 107.421875 271.921875 100.550781 273.351562 94.769531 276.546875 C 95.246094 270.96875 92.863281 264.234375 91.84375 259.269531 C 90.347656 252.191406 88.78125 245.117188 86.742188 238.179688 C 83.136719 225.863281 78.101562 214.027344 73.40625 202.054688 C 69.394531 191.78125 65.175781 181.507812 59.527344 171.984375 C 57.148438 167.972656 54.425781 164.09375 51.5 160.488281 C 59.050781 165.589844 66.195312 171.304688 72.453125 177.835938 C 81.296875 187.019531 87.214844 198.71875 97.011719 207.019531 C 99.324219 208.992188 102.183594 208.3125 103.882812 206.613281 C 104.429688 206.273438 104.90625 205.796875 105.246094 205.046875 C 107.761719 199.265625 107.488281 192.121094 108.714844 185.863281 C 110.007812 179.128906 111.570312 172.460938 112.726562 165.726562 C 114.769531 153.886719 117.832031 142.121094 119.054688 130.214844 C 119.191406 130.214844 119.257812 130.144531 119.394531 130.144531 C 122.183594 135.179688 125.246094 140.011719 127.761719 145.25 C 130.757812 151.507812 133.476562 157.902344 136.335938 164.230469 C 141.097656 174.636719 144.160156 187.359375 151.777344 196.136719 C 151.84375 196.269531 151.980469 196.339844 152.050781 196.476562 C 153.546875 199.265625 158.988281 198.925781 159.53125 195.386719 C 160.621094 188.378906 164.296875 183.34375 167.492188 177.15625 C 170.894531 170.554688 173.480469 163.414062 176.539062 156.675781 C 179.535156 150.078125 182.050781 143.34375 184.570312 136.539062 C 186.8125 130.484375 189.464844 124.429688 191.4375 118.308594 C 192.867188 122.796875 193.414062 127.425781 194.160156 132.117188 C 195.316406 139.328125 197.152344 146.40625 199.125 153.480469 C 203.34375 168.789062 208.445312 184.027344 211.578125 199.535156 C 211.847656 200.761719 212.460938 201.578125 213.277344 202.054688 C 214.09375 203.6875 216.476562 204.164062 217.972656 203.347656 C 223.140625 200.558594 225.320312 192.054688 227.835938 187.019531 C 230.828125 180.828125 233.824219 174.636719 236.882812 168.445312 C 241.578125 158.855469 246.339844 149.261719 250.964844 139.671875 C 250.285156 149.058594 251.578125 158.785156 251.917969 168.039062 C 252.121094 173.957031 252.734375 179.808594 253.277344 185.660156 C 253.753906 191.03125 252.804688 197.699219 255.046875 202.597656 C 255.253906 203.007812 255.523438 203.277344 255.863281 203.484375 C 256.613281 205.523438 259.46875 206.613281 261.171875 204.773438 C 266.410156 199.0625 269.742188 191.984375 275.253906 186.339844 C 281.238281 180.214844 287.90625 174.84375 294.4375 169.261719 C 301.445312 163.277344 308.042969 157.152344 315.527344 151.710938 C 316.140625 151.234375 316.820312 150.757812 317.433594 150.28125 C 316.683594 151.304688 315.933594 152.253906 315.1875 153.207031 C 306.207031 164.570312 298.246094 177.15625 290.96875 189.945312 Z M 351.445312 125.179688 C 350.496094 127.5625 346.753906 128.71875 344.507812 128.988281 C 340.152344 129.601562 337.839844 126.472656 337.910156 122.324219 C 337.910156 121.234375 338.113281 120.28125 338.386719 119.398438 C 339.746094 117.898438 341.175781 116.472656 343.285156 116.132812 C 345.734375 115.792969 348.113281 117.082031 349.679688 118.921875 C 350.972656 120.554688 352.261719 123.140625 351.445312 125.179688 Z M 351.445312 125.179688 " fill-opacity="1" fill-rule="nonzero"/></g><g clip-path="url(#210096e330)"><path fill="#000000" d="M 198.992188 190.96875 C 194.347656 187.859375 188.164062 187.503906 182.9375 189.46875 C 177.707031 191.433594 173.429688 195.519531 170.597656 200.355469 C 169.515625 202.199219 168.613281 204.214844 168.46875 206.351562 C 168.324219 208.484375 169.046875 210.769531 170.722656 212.09375 C 172.402344 213.414062 175.089844 213.464844 176.546875 211.902344 C 177.871094 210.476562 177.871094 208.316406 178.257812 206.40625 C 179.105469 202.21875 182.292969 198.589844 186.328125 197.226562 C 189.839844 196.039062 194.476562 197.015625 195.890625 200.457031 C 197.019531 203.203125 195.664062 206.410156 193.636719 208.570312 C 191.613281 210.734375 188.972656 212.207031 186.742188 214.160156 C 181.714844 218.574219 179.03125 225.550781 179.800781 232.21875 C 180.128906 235.023438 181.25 238.027344 183.761719 239.296875 C 187.65625 241.261719 191.6875 237.90625 191.632812 233.835938 C 191.613281 232.375 190.921875 231.03125 190.867188 229.5625 C 190.78125 227.160156 191.773438 224.679688 192.988281 222.667969 C 194.804688 219.640625 197.386719 217.167969 199.738281 214.539062 C 202.09375 211.910156 204.296875 208.976562 205.097656 205.535156 C 206.371094 200.074219 203.632812 194.078125 198.992188 190.96875 Z M 173.429688 211.476562 C 173.226562 211.519531 173.019531 211.445312 172.828125 211.363281 C 171.300781 210.6875 170.230469 209.160156 169.878906 207.519531 C 169.65625 206.488281 169.695312 205.417969 169.910156 204.390625 C 170.042969 203.777344 170.511719 202.171875 171.121094 201.839844 C 171.433594 201.671875 171.855469 201.730469 172.105469 201.984375 C 172.523438 202.40625 172.390625 203.101562 172.238281 203.675781 C 171.910156 204.914062 171.410156 206.195312 171.554688 207.46875 C 171.699219 208.742188 172.3125 210.015625 173.40625 210.675781 C 173.558594 210.765625 173.730469 210.859375 173.769531 211.03125 C 173.8125 211.230469 173.628906 211.433594 173.429688 211.476562 Z M 182.902344 230.425781 C 182.949219 231.652344 183.125 232.929688 183.523438 234.09375 C 183.910156 235.230469 185.207031 237.121094 184.648438 237.714844 C 183.957031 238.449219 182.4375 236.164062 181.863281 234.960938 C 181.289062 233.757812 181.15625 232.386719 181.144531 231.054688 C 181.125 227.921875 181.734375 224.792969 182.933594 221.902344 C 183.164062 221.347656 183.570312 220.710938 184.160156 220.78125 C 184.640625 220.835938 184.9375 221.375 184.917969 221.855469 C 184.898438 222.339844 184.65625 222.777344 184.4375 223.210938 C 183.320312 225.425781 182.800781 227.941406 182.902344 230.425781 Z M 182.902344 230.425781 " fill-opacity="1" fill-rule="nonzero"/></g><g clip-path="url(#e1cee31945)"><path fill="#000000" d="M 186.339844 244.324219 C 183.042969 245.035156 180.378906 250.558594 182.441406 253.382812 C 183.277344 254.523438 184.761719 255.035156 186.171875 255.023438 C 188.335938 255.015625 190.5 253.835938 191.542969 251.933594 C 193.460938 248.425781 190.574219 243.414062 186.339844 244.324219 Z M 184.554688 253.726562 C 184.503906 253.835938 184.355469 253.84375 184.238281 253.820312 C 184.027344 253.78125 183.828125 253.679688 183.667969 253.539062 C 183.527344 253.410156 183.332031 253.214844 183.277344 253.027344 C 183.25 252.929688 183.261719 252.816406 183.332031 252.75 C 183.421875 252.660156 183.574219 252.675781 183.679688 252.738281 C 183.789062 252.800781 183.863281 252.90625 183.945312 253 C 184.0625 253.136719 184.191406 253.253906 184.335938 253.351562 C 184.402344 253.398438 184.46875 253.441406 184.519531 253.503906 C 184.566406 253.566406 184.589844 253.652344 184.554688 253.726562 Z M 186.519531 246.96875 C 185.90625 247.542969 185.203125 248.007812 184.617188 248.609375 C 184.035156 249.210938 183.558594 249.992188 183.582031 250.832031 C 183.585938 251.058594 183.597656 251.339844 183.398438 251.441406 C 183.242188 251.515625 183.046875 251.417969 182.960938 251.265625 C 182.875 251.113281 182.875 250.929688 182.882812 250.753906 C 182.957031 249.519531 183.460938 248.324219 184.261719 247.386719 C 184.605469 246.984375 186.316406 245.042969 186.878906 245.992188 C 187.070312 246.316406 186.796875 246.714844 186.519531 246.96875 Z M 186.519531 246.96875 " fill-opacity="1" fill-rule="nonzero"/></g></svg>